<svg width="16" height="16" viewBox="0 0 16 16" fill="none" xmlns="http://www.w3.org/2000/svg">
<rect width="16" height="16" fill="#4C40F7"/>
<path d="M3.528 11.056C3.11733 11.056 2.74933 10.9893 2.424 10.856C2.09867 10.7227 1.83733 10.5253 1.64 10.264C1.448 10.0027 1.34667 9.688 1.336 9.32H2.792C2.81333 9.528 2.88533 9.688 3.008 9.8C3.13067 9.90667 3.29067 9.96 3.488 9.96C3.69067 9.96 3.85067 9.91467 3.968 9.824C4.08533 9.728 4.144 9.59733 4.144 9.432C4.144 9.29333 4.096 9.17867 4 9.088C3.90933 8.99733 3.79467 8.92267 3.656 8.864C3.52267 8.80533 3.33067 8.73867 3.08 8.664C2.71733 8.552 2.42133 8.44 2.192 8.328C1.96267 8.216 1.76533 8.05067 1.6 7.832C1.43467 7.61333 1.352 7.328 1.352 6.976C1.352 6.45333 1.54133 6.04533 1.92 5.752C2.29867 5.45333 2.792 5.304 3.4 5.304C4.01867 5.304 4.51733 5.45333 4.896 5.752C5.27467 6.04533 5.47733 6.456 5.504 6.984H4.024C4.01333 6.80267 3.94667 6.66133 3.824 6.56C3.70133 6.45333 3.544 6.4 3.352 6.4C3.18667 6.4 3.05333 6.44533 2.952 6.536C2.85067 6.62133 2.8 6.74667 2.8 6.912C2.8 7.09333 2.88533 7.23467 3.056 7.336C3.22667 7.43733 3.49333 7.54667 3.856 7.664C4.21867 7.78667 4.512 7.904 4.736 8.016C4.96533 8.128 5.16267 8.29067 5.328 8.504C5.49333 8.71733 5.576 8.992 5.576 9.328C5.576 9.648 5.49333 9.93867 5.328 10.2C5.168 10.4613 4.93333 10.6693 4.624 10.824C4.31467 10.9787 3.94933 11.056 3.528 11.056ZM12.7779 5.384V11H11.4099V7.632L10.1539 11H9.04988L7.78588 7.624V11H6.41788V5.384H8.03387L9.60988 9.272L11.1699 5.384H12.7779ZM14.4016 11.064C14.1616 11.064 13.9643 10.9947 13.8096 10.856C13.6603 10.712 13.5856 10.536 13.5856 10.328C13.5856 10.1147 13.6603 9.936 13.8096 9.792C13.9643 9.648 14.1616 9.576 14.4016 9.576C14.6363 9.576 14.8283 9.648 14.9776 9.792C15.1323 9.936 15.2096 10.1147 15.2096 10.328C15.2096 10.536 15.1323 10.712 14.9776 10.856C14.8283 10.9947 14.6363 11.064 14.4016 11.064Z" fill="white"/>
</svg>
